<svg width="120" height="110" viewBox="0 0 120 110" fill="none" xmlns="http://www.w3.org/2000/svg">
<rect x="30" y="30" width="10" height="10" fill="white"/>
<rect x="100" y="30" width="10" height="10" fill="white"/>
<rect x="30" y="100" width="10" height="10" fill="white"/>
<rect x="50" y="90" width="10" height="10" fill="white"/>
<rect x="50" width="10" height="10" fill="white"/>
<rect x="70" y="100" width="10" height="10" fill="white"/>
<rect x="10" y="30" width="10" height="10" fill="white"/>
<rect x="80" y="30" width="10" height="10" fill="white"/>
<rect y="40" width="10" height="10" fill="white"/>
<rect x="110" y="40" width="10" height="10" fill="white"/>
<rect y="50" width="10" height="10" fill="white"/>
<rect x="110" y="50" width="10" height="10" fill="white"/>
<rect x="10" y="60" width="10" height="10" fill="white"/>
<rect x="100" y="60" width="10" height="10" fill="white"/>
<rect x="20" y="70" width="10" height="10" fill="white"/>
<rect x="90" y="70" width="10" height="10" fill="white"/>
<rect x="20" y="30" width="10" height="10" fill="white"/>
<rect x="90" y="30" width="10" height="10" fill="white"/>
<rect x="20" y="80" width="10" height="10" fill="white"/>
<rect x="90" y="80" width="10" height="10" fill="white"/>
<rect x="20" y="90" width="10" height="10" fill="white"/>
<rect x="90" y="90" width="10" height="10" fill="white"/>
<rect x="40" y="20" width="10" height="10" fill="white"/>
<rect x="70" y="20" width="10" height="10" fill="white"/>
<rect x="40" y="10" width="10" height="10" fill="white"/>
<rect x="70" y="10" width="10" height="10" fill="white"/>
<rect x="40" y="100" width="10" height="10" fill="white"/>
<rect x="60" y="90" width="10" height="10" fill="white"/>
<rect x="60" width="10" height="10" fill="white"/>
<rect x="80" y="100" width="10" height="10" fill="white"/>
<rect x="50" y="40" width="10" height="10" fill="white"/>
<rect x="40" y="50" width="10" height="10" fill="white"/>
</svg>
